<svg width="24" height="25" viewBox="0 0 24 25" fill="none" xmlns="http://www.w3.org/2000/svg">
<g clip-path="url(#clip0_678_233)">
<path d="M17.66 8.93003L12 3.28003L6.34 8.93003C4.78 10.49 4 12.57 4 14.57C4 16.57 4.78 18.68 6.34 20.24C7.9 21.8 9.95 22.59 12 22.59C14.05 22.59 16.1 21.8 17.66 20.24C19.22 18.68 20 16.57 20 14.57C20 12.57 19.22 10.49 17.66 8.93003ZM6 14.93C6.01 12.93 6.62 11.66 7.76 10.53L12 6.20003L16.24 10.58C17.38 11.7 17.99 12.93 18 14.93H6Z" fill="#FAFAFF"/>
</g>
<defs>
<clipPath id="clip0_678_233">
<rect width="24" height="24" fill="white" transform="translate(0 0.930054)"/>
</clipPath>
</defs>
</svg>
