<svg width="24" height="25" viewBox="0 0 24 25" fill="none" xmlns="http://www.w3.org/2000/svg">
<g clip-path="url(#clip0_673_235)">
<path d="M13 3.86786C8.03 3.86786 4 7.89786 4 12.8679H1L5 16.8579L9 12.8679H6C6 8.99786 9.13 5.86786 13 5.86786C16.87 5.86786 20 8.99786 20 12.8679C20 16.7379 16.87 19.8679 13 19.8679C11.07 19.8679 9.32 19.0779 8.06 17.8079L6.64 19.2279C8.27 20.8579 10.51 21.8679 13 21.8679C17.97 21.8679 22 17.8379 22 12.8679C22 7.89786 17.97 3.86786 13 3.86786ZM12 8.86786V13.8679L16.25 16.3879L17.02 15.1079L13.5 13.0179V8.86786H12Z" fill="#FAFAFF"/>
</g>
<defs>
<clipPath id="clip0_673_235">
<rect width="24" height="24" fill="white" transform="translate(0 0.867859)"/>
</clipPath>
</defs>
</svg>
